<svg version="1.0" xmlns="http://www.w3.org/2000/svg" width="300.000000pt" height="49.000000pt"
    viewBox="0 0 300.000000 49.000000" preserveAspectRatio="xMidYMid meet">
    <g transform="translate(0.000000,49.000000) scale(0.100000,-0.100000)" fill="#00b4d8"
        stroke="none">
        <path
            d="M1044 411 c-2 -2 -4 -76 -4 -163 l0 -158 123 0 122 0 -4 46 -3 46 -57 -4 -56 -3 4 117 3 116 -62 4 c-34 1 -64 1 -66 -1z m75 -40 c9 -6 14 -35 15 -98 1 -104 10 -120 67 -129 66 -11 43 -24 -40 -24 -94 0 -90 -6 -90 134 1 126 7 143 48 117z" />
        <path
            d="M1428 413 l-118 -4 0 -159 0 -160 125 0 125 0 0 40 0 40 -65 0 c-63 0 -65 1 -65 25 0 24 3 25 55 25 l55 0 0 35 0 35 -55 0 c-52 0 -55 1 -55 25 0 24 3 25 60 25 l60 0 0 40 c0 22 -1 39 -2 38 -2 -1 -56 -4 -120 -5z m2 -43 c8 -5 10 -10 4 -10 -6 0 -17 -11 -24 -25 -11 -21 -10 -28 5 -51 16 -25 16 -28 -1 -59 -16 -31 -17 -35 -1 -59 26 -39 22 -47 -25 -44 l-43 3 -3 119 c-2 89 1 121 10 128 18 11 60 10 78 -2z" />
        <path
            d="M2005 402 c-44 -28 -57 -47 -58 -88 -1 -45 33 -78 96 -94 87 -22 104 -39 64 -64 -12 -8 -21 -6 -35 7 -13 12 -36 17 -76 17 -55 0 -57 -1 -51 -22 17 -61 102 -90 194 -68 65 15 101 51 101 99 0 63 -34 89 -152 115 -16 4 -28 13 -28 21 0 17 40 31 49 17 3 -5 33 -11 66 -13 55 -4 60 -2 57 16 -2 11 -14 31 -28 45 -20 21 -35 25 -97 28 -57 2 -78 -1 -102 -16z m58 -32 c-3 -11 -9 -20 -14 -20 -16 0 -10 -36 10 -58 10 -12 25 -22 34 -22 8 0 36 -9 60 -19 52 -23 66 -50 43 -86 -30 -45 -86 -59 -58 -15 7 11 12 26 12 34 0 22 -43 51 -95 66 -78 22 -96 72 -42 114 39 31 57 33 50 6z m-12 -236 c11 -14 10 -15 -11 -12 -13 1 -25 9 -28 16 -5 17 23 15 39 -4z" />
        <path
            d="M94 250 l-52 -160 63 0 c58 0 64 2 67 23 3 19 9 22 53 22 44 0 50 -3 53 -22 3 -21 9 -23 68 -23 63 0 65 1 58 23 -3 12 -26 84 -51 160 l-44 137 -82 0 -82 -1 -51 -159z m116 120 c0 -6 -7 -22 -16 -36 -27 -41 -36 -111 -18 -139 14 -22 14 -24 -19 -49 -55 -42 -76 -29 -51 32 7 18 13 36 14 40 2 21 30 103 44 131 16 29 46 43 46 21z m116 -115 c40 -124 38 -148 -7 -125 -13 7 -32 19 -42 28 -16 14 -16 17 -2 38 24 38 -1 153 -37 167 -7 3 1 6 19 6 l32 1 37 -115z m-77 27 c16 -78 15 -80 -24 -80 -38 0 -40 4 -26 58 5 19 12 48 16 64 8 38 20 23 34 -42z" />
        <path
            d="M420 250 l0 -160 65 0 65 0 0 56 c0 52 1 55 23 52 16 -2 23 -11 25 -33 7 -75 7 -75 73 -75 l61 0 -7 52 c-9 62 -17 82 -47 102 -12 9 -17 16 -10 16 24 0 52 40 52 74 0 25 -7 40 -26 55 -24 19 -40 21 -150 21 l-124 0 0 -160z m110 109 c-11 -33 -3 -89 15 -109 17 -19 18 -21 1 -33 -10 -7 -21 -28 -25 -47 -8 -40 -33 -59 -54 -42 -11 10 -13 34 -10 125 3 68 9 115 17 119 19 13 62 2 56 -13z m154 -11 c6 -11 3 -24 -12 -46 -27 -37 -27 -43 -2 -92 22 -43 24 -58 11 -79 -12 -18 -51 3 -51 28 0 10 -9 30 -20 44 -26 32 -26 34 10 64 33 28 38 54 14 77 -8 9 -13 20 -9 25 7 13 46 -1 59 -21z m-76 -10 c7 -7 12 -18 12 -24 0 -19 -29 -44 -51 -44 -16 0 -19 7 -19 40 0 35 3 40 23 40 13 0 28 -5 35 -12z" />
        <path
            d="M734 388 c3 -13 6 -31 6 -40 0 -14 8 -18 35 -18 l35 0 0 -120 0 -120 65 0 65 0 0 120 0 120 40 0 c40 0 40 0 40 40 l0 40 -146 0 -146 0 6 -22z m236 -18 c0 -3 -14 -13 -30 -22 -30 -17 -30 -17 -30 -111 0 -102 -10 -125 -50 -112 -18 6 -20 14 -20 99 0 86 -2 94 -25 116 -19 18 -22 26 -13 32 14 9 168 8 168 -2z" />
        <path
            d="M1581 250 l-2 -160 56 0 55 0 0 87 c0 48 4 83 8 78 5 -6 21 -45 36 -87 l28 -78 74 0 74 0 0 160 0 160 -52 0 -53 0 3 -91 c4 -104 20 -110 29 -10 5 49 9 61 21 59 13 -3 16 -21 16 -106 1 -127 -4 -142 -44 -142 -37 0 -56 17 -66 56 -7 30 -29 69 -52 93 -22 23 -45 -10 -50 -73 -5 -59 -26 -91 -43 -65 -9 14 -3 225 7 241 3 4 21 8 39 8 38 0 53 -16 76 -83 7 -20 24 -47 38 -60 23 -21 24 -21 17 -2 -4 11 -19 55 -34 97 l-27 78 -77 0 -76 0 -1 -160z" />
        <path
            d="M2446 263 c-27 -82 -51 -154 -53 -161 -4 -9 12 -12 61 -12 64 0 66 1 66 25 0 23 3 25 50 25 45 0 50 -3 56 -25 6 -23 10 -25 69 -25 l63 0 -22 73 c-13 39 -36 111 -51 160 l-29 87 -81 0 -81 0 -48 -147z m105 83 c-11 -11 -25 -43 -32 -70 -10 -42 -10 -52 5 -77 16 -28 16 -28 -19 -55 -31 -23 -38 -25 -50 -13 -12 12 -9 29 21 119 35 105 53 133 81 123 12 -5 11 -9 -6 -27z m71 22 c18 -15 78 -174 81 -215 3 -38 -21 -40 -62 -5 -33 27 -34 30 -19 51 9 13 14 35 12 50 -7 44 -27 101 -36 101 -4 0 -8 7 -8 15 0 18 11 19 32 3z m-24 -86 c17 -78 17 -80 -23 -80 -39 0 -41 4 -24 76 21 92 28 92 47 4z" />
        <path
            d="M2771 250 l-2 -160 68 0 68 0 -3 160 -3 160 -63 0 -63 0 -2 -160z m83 124 c24 -9 24 -225 0 -245 -11 -9 -20 -10 -32 -2 -15 9 -17 27 -14 124 2 74 7 116 15 121 15 9 12 9 31 2z" />
    </g>
</svg> 